:SAMPLES-PER-SECOND 30
:FULLY-SPECIFIED
:DEGREES
55
root  4.47278 39.672 23.0273 -67.4586 -89.3829 63.181
RightUpLeg  -4.47028 -6.41091 -1.08513
RightLeg  13.7099 8.47804 1.17396
RightFoot  -5.41125 0.164223 -3.88634
RightToes  5.82063e-011 0 -3.6325e-017
Spine  5.90442 -1.7161 2.03505
Spine1  11.3815 -2.42502 3.45203
HEad  -7.42599 -8.8293 2.24479
LeftShoulder1  -0.493729 4.79031 -32.2102
LeftArm  -8.8505 18.6988 -44.5004
LeftForeArm  34.5066 -2.52304 -6.04971
LeftHand  -0.267696 9.65572 -5.56052
RightShoulder  -0.916866 -6.1416 28.1851
RightArm  14.8591 -0.0220681 44.1056
RightForeArm  8.87673 23.1308 4.50436
RightHand  -0.271697 3.93469 -3.64619
LeftUpLeg  -4.34562 1.62243 6.06524
LeftLeg  12.8648 -6.98507 -1.20692
LeftFoot  -5.873 0.23395 -4.17111
LeftToes  -1.20963e-009 8.6283e-011 2.04439e-011
56
root  4.18437 39.7504 23.4476 -142.983 -88.6976 138.655
RightUpLeg  -3.99232 -5.35619 -1.96885
RightLeg  13.5575 8.80318 0.918909
RightFoot  -5.63773 0.106684 -2.89658
RightToes  5.82063e-011 0 -3.6325e-017
Spine  5.87446 -1.70223 -0.210933
Spine1  11.9473 -2.77718 4.04252
HEad  -6.83936 -7.48429 2.30491
LeftShoulder1  -0.56741 4.95802 -32.8769
LeftArm  -8.21275 17.7815 -44.3742
LeftForeArm  36.1101 -2.13813 -6.411
LeftHand  -0.255401 9.40038 -5.60435
RightShoulder  -0.900429 -6.11505 27.9043
RightArm  11.3834 -0.333817 44.3445
RightForeArm  9.9245 23.3052 4.47358
RightHand  -0.229273 3.40321 -3.26708
LeftUpLeg  -3.0489 4.21095 5.11841
LeftLeg  11.7858 -7.81958 -1.06333
LeftFoot  -5.45867 0.186891 -2.99163
LeftToes  -1.20963e-009 8.6283e-011 2.04439e-011
57
root  3.87043 39.737 23.8485 -160.303 -87.4727 155.662
RightUpLeg  -3.85831 -2.22656 -2.61077
RightLeg  14.6342 7.35446 0.768846
RightFoot  -6.53181 0.0239228 -1.61173
RightToes  5.82063e-011 0 -3.6325e-017
Spine  6.02713 -1.66371 -1.24598
Spine1  12.1797 -2.59684 3.03117
HEad  -5.7184 -6.47959 2.52046
LeftShoulder1  -0.506243 4.82376 -32.1911
LeftArm  -7.90019 16.7649 -44.6648
LeftForeArm  37.6343 -2.63985 -6.65352
LeftHand  -0.261526 9.1966 -6.11515
RightShoulder  -0.951285 -6.21393 28.5349
RightArm  10.143 -0.72945 44.3243
RightForeArm  8.53301 22.8662 4.46451
RightHand  -0.322787 4.60876 -4.03592
LeftUpLeg  -2.1101 4.43802 4.34575
LeftLeg  12.0834 -6.56365 -0.694239
LeftFoot  -5.98735 0.13769 -2.17419
LeftToes  -1.20963e-009 8.6283e-011 2.04439e-011
58
root  3.55165 39.6269 24.2222 -163.538 -85.6084 158.533
RightUpLeg  -4.61329 1.73781 -3.85541
RightLeg  17.3478 5.42013 1.42118
RightFoot  -7.86258 -0.0351825 -0.608998
RightToes  5.82063e-011 0 -3.6325e-017
Spine  5.89345 -1.37233 -2.59335
Spine1  12.7292 -2.19666 2.03678
HEad  -5.11385 -5.56813 2.45931
LeftShoulder1  -0.43876 4.65916 -31.8213
LeftArm  -7.28012 15.1336 -44.3311
LeftForeArm  37.318 -4.17229 -7.10212
LeftHand  -0.225679 8.64904 -5.95508
RightShoulder  -0.993257 -6.31795 28.7371
RightArm  9.62546 -1.16359 44.6581
RightForeArm  7.77842 22.4639 4.4343
RightHand  -0.358064 4.52552 -4.46202
LeftUpLeg  -1.47114 5.61619 3.56676
LeftLeg  13.3328 -6.01101 -0.934426
LeftFoot  -7.49344 0.110184 -1.94519
LeftToes  -1.20963e-009 8.6283e-011 2.04439e-011
59
root  3.22221 39.4585 24.5608 -164.313 -83.5754 159.004
RightUpLeg  -6.27424 2.8765 -5.18994
RightLeg  21.4557 5.70679 2.29948
RightFoot  -8.93762 -0.0724367 0.600635
RightToes  5.82063e-011 0 -3.6325e-017
Spine  6.15636 -1.2209 -4.07617
Spine1  12.4332 -2.02285 1.24904
HEad  -5.12909 -4.45492 2.17088
LeftShoulder1  -0.512419 4.83443 -32.3657
LeftArm  -6.02911 13.6332 -42.7985
LeftForeArm  35.5746 -7.47655 -7.64708
LeftHand  -0.187797 8.45098 -5.06908
RightShoulder  -0.930087 -6.16862 28.3251
RightArm  10.5888 -1.8383 45.3593
RightForeArm  8.25943 22.0429 4.35704
RightHand  -0.265629 3.96817 -3.5654
LeftUpLeg  -1.16687 6.68523 2.66215
LeftLeg  15.124 -5.13174 -1.08919
LeftFoot  -9.2788 0.0873894 -1.75374
LeftToes  -1.20963e-009 8.6283e-011 2.04439e-011
